<svg width="256" height="256" viewBox="0 0 67.733 67.733" xmlns="http://www.w3.org/2000/svg"><path class="header__logo__svg__reel header__logo__svg__reel-1" d="M33.867 67.733C15.162 67.733 0 52.571 0 33.866 0 15.163 15.162.001 33.867-.001c18.705 0 33.867 15.162 33.867 33.867S52.572 67.733 33.867 67.733zm0-4.713a6.684 6.684 0 1 0 0-13.368 6.684 6.684 0 0 0 0 13.368zm-18.71-11.35a6.682 6.682 0 1 0 0-13.364 6.682 6.682 0 0 0 0 13.364zm36.801-.023a6.684 6.684 0 1 0 0-13.368 6.684 6.684 0 0 0 0 13.368zM33.867 37.432a3.565 3.565 0 1 0 0-7.128 3.565 3.565 0 0 0 0 7.128zm-18.71-9.56a6.684 6.684 0 1 0 0-13.368 6.684 6.684 0 0 0 0 13.368zm36.799-.025a6.684 6.684 0 1 0 0-13.368 6.684 6.684 0 0 0 0 13.368zM33.867 17.68a6.684 6.684 0 1 0-.002-13.368 6.684 6.684 0 0 0 0 13.368z" fill="#cc7750"/></svg>