<svg width="256" height="256" version="1.1" viewBox="0 0 67.733 67.733" xmlns="http://www.w3.org/2000/svg">
 <path class="header__logo__svg__reel header__logo__svg__reel-1" d="m33.867 67.733c-18.705 0-33.867-15.162-33.867-33.867 0-18.703 15.162-33.865 33.867-33.867 18.705 0 33.867 15.162 33.867 33.867 0 18.705-15.162 33.867-33.867 33.867zm0-4.7133a6.6841 6.6841 0 1 0 0-13.368 6.6841 6.6841 0 0 0 0 13.368zm-18.71-11.35a6.6822 6.6822 0 1 0 0-13.364 6.6822 6.6822 0 0 0 0 13.364zm36.801-0.0226a6.6841 6.6841 0 1 0 0-13.368 6.6841 6.6841 0 0 0 0 13.368zm-18.091-14.215a3.5651 3.5651 0 1 0 0-7.1283 3.5651 3.5651 0 0 0 0 7.1283zm-18.71-9.5603a6.6841 6.6841 0 1 0 0-13.368 6.6841 6.6841 0 0 0 0 13.368zm36.799-0.02447a6.6841 6.6841 0 1 0 0-13.368 6.6841 6.6841 0 0 0 0 13.368zm-18.089-10.168a6.6841 6.6841 0 1 0-2e-3 -13.368 6.6841 6.6841 0 0 0 0 13.368z" fill="#cc7750" stroke-width="1.8823"/>
</svg>
